# xmcd CD database file generated by Grip 2.94
# 
# Track frame offsets:
#       150
#       38965
#       49725
#       74530
#       92175
#       107435
#       131852
#       152265
# 
# Disc length: 2558 seconds
# 
# Revision: 3
# Processed by: cddbd v1.4b41PL1 Copyright (c) Steve Scherf et al.
# Submitted via: Grip 2.94
# 
DISCID=6709fc08
DTITLE=Milt Jackson - Bag's Bag
DYEAR=1900
DGENRE=
TTITLE0=Blues for Roberta
TTITLE1=Groovin'
TTITLE2=How Are You
TTITLE3=On a Slow Boat to China
TTITLE4=I Cover the Waterfront
TTITLE5=The Rev
TTITLE6=Tour Angel
TTITLE7=Blues for Tomi-Oka
EXTD=Milt Jackson - vibes\nCedar Walton - piano\nRary Brown - bass\nJohnCol
EXTD=lins - guitar (#2]\nVaughn Andre - guitar (#3]\nBilly Higgins- drums (
EXTD=#1, 3, 6, 7, 8]\nFrank Severino - drums (#2)
EXTT0=
EXTT1=
EXTT2=
EXTT3=
EXTT4=
EXTT5=
EXTT6=
EXTT7=
PLAYORDER=
